<svg width="669" height="367" viewBox="0 0 669 367" fill="none" xmlns="http://www.w3.org/2000/svg">
<g clip-path="url(#clip0_387_310)">
<path d="M168.454 325.769C186.808 325.769 201.686 310.897 201.686 292.552C201.686 274.206 186.808 259.334 168.454 259.334C150.101 259.334 135.223 274.206 135.223 292.552C135.223 310.897 150.101 325.769 168.454 325.769Z" fill="#F2F2F2"/>
<path d="M173.857 320.908C192.21 320.908 207.088 306.036 207.088 287.69C207.088 269.345 192.21 254.473 173.857 254.473C155.503 254.473 140.625 269.345 140.625 287.69C140.625 306.036 155.503 320.908 173.857 320.908Z" fill="#2DB98A"/>
<path d="M611.784 250.936H200.619V252.057H611.784V250.936Z" fill="#3F3D56"/>
<path d="M388.666 109.413H276.307V112.355H388.666V109.413Z" fill="#F2F2F2"/>
<path d="M669.001 314.294H257.836V315.416H669.001V314.294Z" fill="#3F3D56"/>
<path d="M281.114 365.879H138.076V367H281.114V365.879Z" fill="#3F3D56"/>
<path d="M309.905 308.383H294.199V324.083H309.905V308.383Z" fill="#F26754"/>
<path d="M319.443 315.111H300.371V296.048H319.443V315.111ZM301.2 314.282H318.614V296.876H301.2V314.282Z" fill="#3F3D56"/>
<path d="M88.2775 10.4583H234.216V7.45166H300.39V10.4583H446.929C448.226 10.4583 449.509 10.7135 450.707 11.2094C451.905 11.7053 452.993 12.4321 453.909 13.3484C454.826 14.2647 455.553 15.3524 456.049 16.5496C456.545 17.7468 456.801 19.0299 456.801 20.3257V220.075C456.801 222.692 455.761 225.202 453.909 227.052C452.058 228.903 449.547 229.942 446.929 229.942H88.2775C85.6594 229.942 83.1485 228.903 81.2972 227.052C79.4459 225.202 78.4059 222.692 78.4059 220.075V20.3257C78.4059 19.0299 78.6612 17.7468 79.1573 16.5496C79.6534 15.3524 80.3806 14.2647 81.2972 13.3484C82.2139 12.4321 83.3021 11.7053 84.4998 11.2094C85.6974 10.7135 86.9811 10.4583 88.2775 10.4583Z" fill="#3F3D56"/>
<path d="M91.6411 27.8967H443.566V226.334H91.6411V27.8967Z" fill="white"/>
<path d="M267.904 22.4847C265.911 22.4847 264.295 20.8694 264.295 18.8768C264.295 16.8841 265.911 15.2688 267.904 15.2688C269.898 15.2688 271.514 16.8841 271.514 18.8768C271.514 20.8694 269.898 22.4847 267.904 22.4847Z" fill="#6C63FF"/>
<path d="M192.286 226.335H443.566V27.897L192.286 226.335Z" fill="#F2F2F2"/>
<path d="M388.5 211.485C369.817 211.485 354.672 196.346 354.672 177.671C354.672 158.997 369.817 143.858 388.5 143.858C407.183 143.858 422.328 158.997 422.328 177.671C422.328 196.346 407.183 211.485 388.5 211.485Z" fill="#2988AD"/>
<path d="M152.915 134.916H185.789V141.782H152.915V134.916Z" fill="#F26754"/>
<path d="M113.174 81.4573H225.533V84.3999H113.174V81.4573Z" fill="#F2F2F2"/>
<path d="M113.174 90.7759H225.533V93.7185H113.174V90.7759Z" fill="#F2F2F2"/>
<path d="M113.174 100.094H225.533V103.037H113.174V100.094Z" fill="#F2F2F2"/>
<path d="M113.174 118.731H225.533V121.674H113.174V118.731Z" fill="#F2F2F2"/>
<path d="M113.174 31.9226H126.912V45.655H113.174V31.9226Z" fill="#F2F2F2"/>
<path d="M106.794 52.0308H123.477V35.3557H106.794V52.0308ZM122.751 51.3059H107.52V36.0807H122.751V51.3059Z" fill="#2988AD"/>
<path d="M68.5241 222.726H102.87V220.253C102.87 220.188 102.882 220.125 102.907 220.065C102.932 220.006 102.968 219.952 103.013 219.906C103.059 219.861 103.113 219.824 103.173 219.8C103.232 219.775 103.296 219.762 103.36 219.762H115.136C115.2 219.762 115.264 219.775 115.324 219.8C115.383 219.824 115.437 219.861 115.483 219.906C115.529 219.952 115.565 220.006 115.589 220.065C115.614 220.125 115.627 220.188 115.627 220.253V222.726H122.986V220.253C122.986 220.188 122.999 220.125 123.024 220.065C123.048 220.006 123.085 219.952 123.13 219.906C123.176 219.861 123.23 219.824 123.289 219.8C123.349 219.775 123.413 219.762 123.477 219.762H135.253C135.317 219.762 135.381 219.775 135.441 219.8C135.5 219.824 135.554 219.861 135.6 219.906C135.645 219.952 135.681 220.006 135.706 220.065C135.731 220.125 135.743 220.188 135.743 220.253V222.726H143.103V220.253C143.103 220.188 143.116 220.125 143.141 220.065C143.165 220.006 143.201 219.952 143.247 219.906C143.292 219.861 143.346 219.824 143.406 219.8C143.466 219.775 143.529 219.762 143.594 219.762H155.369C155.434 219.762 155.498 219.775 155.557 219.8C155.617 219.824 155.671 219.861 155.716 219.906C155.762 219.952 155.798 220.006 155.823 220.065C155.847 220.125 155.86 220.188 155.86 220.253V222.726H163.22V220.253C163.22 220.188 163.233 220.125 163.257 220.065C163.282 220.006 163.318 219.952 163.364 219.906C163.409 219.861 163.463 219.824 163.523 219.8C163.582 219.775 163.646 219.762 163.711 219.762H175.486C175.551 219.762 175.614 219.775 175.674 219.8C175.733 219.824 175.788 219.861 175.833 219.906C175.879 219.952 175.915 220.006 175.94 220.065C175.964 220.125 175.977 220.188 175.977 220.253V222.726H183.337V220.253C183.337 220.188 183.349 220.125 183.374 220.065C183.399 220.006 183.435 219.952 183.48 219.906C183.526 219.861 183.58 219.824 183.639 219.8C183.699 219.775 183.763 219.762 183.827 219.762H195.603C195.667 219.762 195.731 219.775 195.791 219.8C195.85 219.824 195.904 219.861 195.95 219.906C195.995 219.952 196.032 220.006 196.056 220.065C196.081 220.125 196.094 220.188 196.094 220.253V222.726H203.453V220.253C203.453 220.188 203.466 220.125 203.491 220.065C203.515 220.006 203.551 219.952 203.597 219.906C203.643 219.861 203.697 219.824 203.756 219.8C203.816 219.775 203.88 219.762 203.944 219.762H215.72C215.784 219.762 215.848 219.775 215.907 219.8C215.967 219.824 216.021 219.861 216.067 219.906C216.112 219.952 216.148 220.006 216.173 220.065C216.198 220.125 216.21 220.188 216.21 220.253V222.726H223.57V220.253C223.57 220.188 223.583 220.125 223.607 220.065C223.632 220.006 223.668 219.952 223.714 219.906C223.759 219.861 223.813 219.824 223.873 219.8C223.932 219.775 223.996 219.762 224.061 219.762H316.303C316.368 219.762 316.431 219.775 316.491 219.8C316.551 219.824 316.605 219.861 316.65 219.906C316.696 219.952 316.732 220.006 316.757 220.065C316.781 220.125 316.794 220.188 316.794 220.253V222.726H324.154V220.253C324.154 220.188 324.166 220.125 324.191 220.065C324.216 220.006 324.252 219.952 324.297 219.906C324.343 219.861 324.397 219.824 324.457 219.8C324.516 219.775 324.58 219.762 324.644 219.762H336.42C336.484 219.762 336.548 219.775 336.608 219.8C336.667 219.824 336.721 219.861 336.767 219.906C336.812 219.952 336.849 220.006 336.873 220.065C336.898 220.125 336.911 220.188 336.911 220.253V222.726H344.27V220.253C344.27 220.188 344.283 220.125 344.308 220.065C344.332 220.006 344.369 219.952 344.414 219.906C344.46 219.861 344.514 219.824 344.573 219.8C344.633 219.775 344.697 219.762 344.761 219.762H356.537C356.601 219.762 356.665 219.775 356.724 219.8C356.784 219.824 356.838 219.861 356.884 219.906C356.929 219.952 356.965 220.006 356.99 220.065C357.015 220.125 357.027 220.188 357.027 220.253V222.726H364.387V220.253C364.387 220.188 364.4 220.125 364.424 220.065C364.449 220.006 364.485 219.952 364.531 219.906C364.576 219.861 364.63 219.824 364.69 219.8C364.75 219.775 364.813 219.762 364.878 219.762H376.653C376.718 219.762 376.782 219.775 376.841 219.8C376.901 219.824 376.955 219.861 377 219.906C377.046 219.952 377.082 220.006 377.107 220.065C377.131 220.125 377.144 220.188 377.144 220.253V222.726H384.504V220.253C384.504 220.188 384.517 220.125 384.541 220.065C384.566 220.006 384.602 219.952 384.648 219.906C384.693 219.861 384.747 219.824 384.807 219.8C384.866 219.775 384.93 219.762 384.994 219.762H396.77C396.835 219.762 396.898 219.775 396.958 219.8C397.017 219.824 397.072 219.861 397.117 219.906C397.163 219.952 397.199 220.006 397.223 220.065C397.248 220.125 397.261 220.188 397.261 220.253V222.726H404.621V220.253C404.621 220.188 404.633 220.125 404.658 220.065C404.683 220.006 404.719 219.952 404.764 219.906C404.81 219.861 404.864 219.824 404.923 219.8C404.983 219.775 405.047 219.762 405.111 219.762H416.887C416.951 219.762 417.015 219.775 417.075 219.8C417.134 219.824 417.188 219.861 417.234 219.906C417.279 219.952 417.315 220.006 417.34 220.065C417.365 220.125 417.377 220.188 417.377 220.253V222.726H424.737V220.253C424.737 220.188 424.75 220.125 424.775 220.065C424.799 220.006 424.835 219.952 424.881 219.906C424.927 219.861 424.981 219.824 425.04 219.8C425.1 219.775 425.163 219.762 425.228 219.762H437.004C437.068 219.762 437.132 219.775 437.191 219.8C437.251 219.824 437.305 219.861 437.351 219.906C437.396 219.952 437.432 220.006 437.457 220.065C437.482 220.125 437.494 220.188 437.494 220.253V222.726H460.064C463.187 222.726 466.182 223.967 468.391 226.174C470.599 228.381 471.84 231.375 471.84 234.497V239.819C471.84 242.941 470.599 245.935 468.391 248.143C466.182 250.35 463.187 251.59 460.064 251.59H68.5241C65.401 251.59 62.4058 250.35 60.1975 248.143C57.9891 245.935 56.7485 242.941 56.7484 239.819V234.497C56.7485 231.375 57.9891 228.381 60.1975 226.174C62.4058 223.967 65.401 222.726 68.5241 222.726Z" fill="#3F3D56"/>
<path d="M380.312 198.791C388.744 198.791 396.986 196.292 403.997 191.609C411.007 186.927 416.472 180.272 419.698 172.485C422.925 164.699 423.769 156.131 422.124 147.865C420.479 139.599 416.419 132.006 410.457 126.046C404.495 120.087 396.899 116.028 388.629 114.384C380.36 112.74 371.788 113.584 363.998 116.809C356.208 120.034 349.55 125.496 344.866 132.504C340.182 139.511 337.681 147.75 337.681 156.178C337.694 167.476 342.19 178.307 350.182 186.296C358.174 194.285 369.01 198.778 380.312 198.791ZM380.312 114.687C388.522 114.687 396.547 117.12 403.374 121.679C410.2 126.238 415.52 132.718 418.662 140.3C421.804 147.882 422.626 156.224 421.024 164.273C419.422 172.321 415.469 179.714 409.664 185.517C403.859 191.32 396.462 195.271 388.41 196.872C380.358 198.473 372.012 197.652 364.427 194.511C356.843 191.371 350.36 186.053 345.799 179.23C341.238 172.406 338.803 164.384 338.803 156.178C338.816 145.178 343.193 134.631 350.975 126.853C358.756 119.074 369.307 114.699 380.312 114.687Z" fill="#2DB98A"/>
<path d="M-0.000823975 18.2468H143.037V19.3682H-0.000823975V18.2468Z" fill="#3F3D56"/>
<path d="M9.62973 12.3354H25.3359V28.0349H9.62973V12.3354Z" fill="#F26754"/>
<path d="M0.0942688 19.0637H19.166V0H0.0942688V19.0637ZM18.3368 18.2348H0.923481V0.828857H18.3368V18.2348Z" fill="#3F3D56"/>
<path d="M650.394 308.383H634.688V324.083H650.394V308.383Z" fill="#F26754"/>
<path d="M659.929 315.111H640.857V296.048H659.929V315.111ZM641.687 314.282H659.1V296.876H641.687V314.282Z" fill="#3F3D56"/>
<path d="M623.003 130.058H621.669V93.5222C621.669 90.7453 621.122 87.9955 620.059 85.43C618.995 82.8644 617.437 80.5333 615.473 78.5697C613.508 76.6061 611.176 75.0485 608.609 73.9858C606.043 72.9232 603.292 72.3762 600.514 72.3762H523.075C520.297 72.3762 517.546 72.9232 514.979 73.9858C512.413 75.0485 510.081 76.6061 508.116 78.5697C506.152 80.5333 504.593 82.8644 503.53 85.43C502.467 87.9955 501.92 90.7453 501.92 93.5222V293.961C501.92 296.738 502.467 299.487 503.53 302.053C504.593 304.618 506.152 306.95 508.116 308.913C510.081 310.877 512.413 312.434 514.979 313.497C517.546 314.56 520.297 315.107 523.075 315.107H600.514C603.292 315.107 606.043 314.56 608.609 313.497C611.176 312.434 613.508 310.877 615.473 308.913C617.437 306.95 618.995 304.618 620.059 302.053C621.122 299.487 621.669 296.738 621.669 293.961V156.065H623.003V130.058Z" fill="#3F3D56"/>
<path d="M617.164 94.765V294.911C617.165 299.1 615.501 303.117 612.539 306.079C609.577 309.041 605.558 310.705 601.368 310.706H523.556C519.366 310.705 515.347 309.041 512.385 306.079C509.423 303.117 507.759 299.1 507.76 294.911V94.765C507.76 90.5776 509.425 86.5618 512.387 83.6009C515.349 80.6399 519.366 78.9763 523.556 78.9758H532.996C532.532 80.115 532.354 81.3508 532.48 82.5745C532.606 83.7982 533.031 84.9722 533.717 85.9931C534.404 87.014 535.331 87.8504 536.418 88.4288C537.504 89.0071 538.715 89.3095 539.946 89.3095H584.31C585.541 89.3095 586.753 89.0071 587.839 88.4288C588.925 87.8505 589.853 87.014 590.539 85.9931C591.226 84.9722 591.651 83.7982 591.776 82.5745C591.902 81.3508 591.725 80.1149 591.26 78.9758H601.368C605.558 78.9763 609.575 80.6399 612.537 83.6009C615.5 86.5618 617.164 90.5776 617.164 94.765Z" fill="white"/>
<path d="M574.051 210.944H550.871V217.81H574.051V210.944Z" fill="#F26754"/>
<path d="M602.076 157.486H522.85V160.428H602.076V157.486Z" fill="#F2F2F2"/>
<path d="M602.076 166.804H522.85V169.747H602.076V166.804Z" fill="#F2F2F2"/>
<path d="M602.076 176.122H522.85V179.065H602.076V176.122Z" fill="#F2F2F2"/>
<path d="M602.076 185.441H522.85V188.384H602.076V185.441Z" fill="#F2F2F2"/>
<path d="M602.076 194.759H522.85V197.702H602.076V194.759Z" fill="#F2F2F2"/>
<path d="M565.23 118.407H551.492V132.14H565.23V118.407Z" fill="#F2F2F2"/>
<path d="M556.75 121.841V138.516H573.432V121.841H556.75ZM572.709 137.793H557.474V122.564H572.709V137.793Z" fill="#2988AD"/>
<path d="M617.164 273.538V294.911C617.165 299.1 615.501 303.117 612.539 306.079C609.577 309.041 605.558 310.705 601.368 310.706H523.556C519.366 310.705 515.347 309.041 512.385 306.079C509.423 303.117 507.759 299.1 507.76 294.911V187.14L573.316 238.909L574.438 239.795L586.633 249.422L587.771 250.325L617.164 273.538Z" fill="#F2F2F2"/>
<path d="M555.73 304.22C569.32 304.22 580.337 293.207 580.337 279.623C580.337 266.039 569.32 255.027 555.73 255.027C542.14 255.027 531.123 266.039 531.123 279.623C531.123 293.207 542.14 304.22 555.73 304.22Z" fill="#2988AD"/>
<path d="M209.594 367C199.942 367 190.507 364.139 182.482 358.779C174.456 353.419 168.201 345.801 164.508 336.887C160.814 327.974 159.848 318.165 161.731 308.703C163.614 299.24 168.262 290.549 175.087 283.727C181.912 276.904 190.607 272.259 200.074 270.376C209.54 268.494 219.352 269.46 228.27 273.152C237.187 276.844 244.809 283.097 250.171 291.119C255.533 299.14 258.396 308.572 258.396 318.22C258.381 331.152 253.235 343.552 244.086 352.697C234.937 361.841 222.533 366.986 209.594 367ZM209.594 270.56C200.164 270.56 190.946 273.356 183.105 278.592C175.264 283.829 169.153 291.273 165.544 299.981C161.936 308.69 160.991 318.272 162.831 327.517C164.671 336.762 169.212 345.254 175.88 351.92C182.548 358.585 191.044 363.124 200.292 364.963C209.541 366.802 219.128 365.858 227.84 362.251C236.553 358.644 243.999 352.535 249.238 344.698C254.477 336.86 257.274 327.646 257.274 318.22C257.259 305.584 252.231 293.47 243.293 284.535C234.354 275.6 222.235 270.575 209.594 270.56Z" fill="#3F3D56"/>
<path d="M562.984 298.595C556.882 298.595 550.918 296.786 545.844 293.398C540.771 290.009 536.816 285.193 534.481 279.558C532.146 273.923 531.535 267.723 532.726 261.74C533.916 255.758 536.854 250.264 541.169 245.951C545.484 241.638 550.981 238.701 556.965 237.511C562.95 236.321 569.153 236.932 574.79 239.266C580.428 241.6 585.246 245.553 588.636 250.624C592.026 255.695 593.836 261.658 593.836 267.757C593.826 275.933 590.573 283.771 584.789 289.553C579.005 295.334 571.164 298.586 562.984 298.595ZM562.984 238.04C557.104 238.04 551.356 239.783 546.467 243.048C541.578 246.313 537.768 250.955 535.518 256.385C533.268 261.815 532.679 267.79 533.826 273.554C534.973 279.319 537.804 284.614 541.962 288.77C546.12 292.926 551.417 295.756 557.184 296.903C562.951 298.049 568.929 297.461 574.361 295.212C579.794 292.962 584.437 289.154 587.703 284.267C590.97 279.38 592.714 273.634 592.714 267.757C592.705 259.878 589.57 252.325 583.996 246.754C578.423 241.182 570.866 238.049 562.984 238.04Z" fill="#2DB98A"/>
</g>
<defs>
<clipPath id="clip0_387_310">
<rect width="669" height="367" fill="white"/>
</clipPath>
</defs>
</svg>
