<svg width="393" height="378" viewBox="0 0 393 378" fill="none" xmlns="http://www.w3.org/2000/svg">
<g clip-path="url(#clip0_387_356)">
<path d="M174.026 194.858L188.836 220.499L203.646 246.14H144.406L159.216 220.499L174.026 194.858Z" fill="#2988AD"/>
<path d="M89.8683 144.497H27.7578V206.581H89.8683V144.497Z" fill="#F26754"/>
<path d="M134.389 104.939C156.397 104.939 174.238 87.1054 174.238 65.1063C174.238 43.1072 156.397 25.2734 134.389 25.2734C112.38 25.2734 94.5391 43.1072 94.5391 65.1063C94.5391 87.1054 112.38 104.939 134.389 104.939Z" fill="#2DB98A"/>
<path d="M170.254 131.616C170.254 130.312 170.641 129.038 171.365 127.954C172.09 126.869 173.12 126.024 174.326 125.525C175.531 125.026 176.857 124.896 178.136 125.15C179.416 125.405 180.591 126.032 181.514 126.954C182.436 127.877 183.064 129.051 183.319 130.33C183.573 131.609 183.443 132.935 182.943 134.14C182.444 135.344 181.599 136.374 180.514 137.098C179.429 137.823 178.154 138.209 176.85 138.209C175.1 138.209 173.423 137.515 172.186 136.278C170.949 135.042 170.254 133.365 170.254 131.616ZM171.353 131.616C171.353 132.703 171.676 133.765 172.28 134.669C172.883 135.572 173.742 136.277 174.746 136.692C175.751 137.108 176.856 137.217 177.922 137.005C178.988 136.793 179.968 136.27 180.736 135.501C181.505 134.733 182.028 133.754 182.241 132.688C182.453 131.623 182.344 130.518 181.928 129.514C181.512 128.51 180.807 127.652 179.903 127.048C179 126.445 177.937 126.122 176.85 126.122C175.392 126.122 173.994 126.701 172.963 127.731C171.932 128.762 171.353 130.159 171.353 131.616Z" fill="#CCCCCC"/>
<path d="M113.469 246.301L103.76 235.896L114.169 226.191L123.878 236.596L113.469 246.301ZM105.308 235.95L113.523 244.754L122.33 236.542L114.115 227.738L105.308 235.95Z" fill="#CCCCCC"/>
<path d="M33.2807 98.284L25.3789 89.8158L33.8529 81.9185L41.7546 90.3866L33.2807 98.284ZM26.6382 89.8597L33.3269 97.0274L40.4954 90.3438L33.8089 83.1783L26.6382 89.8597Z" fill="#CCCCCC"/>
<path d="M144.283 109.884C133.412 109.884 122.785 106.661 113.746 100.624C104.708 94.5873 97.6625 86.0065 93.5024 75.9672C89.3422 65.9279 88.2537 54.8809 90.3745 44.2233C92.4954 33.5656 97.7303 23.7759 105.417 16.0921C113.104 8.40837 122.898 3.17566 133.56 1.05572C144.222 -1.06423 155.274 0.0238054 165.318 4.18222C175.361 8.34064 183.946 15.3827 189.985 24.4178C196.025 33.453 199.248 44.0754 199.248 54.9419C199.248 69.5134 193.458 83.4881 183.15 93.7916C172.842 104.095 158.861 109.884 144.283 109.884ZM144.283 1.09886C133.63 1.09886 123.215 4.2567 114.357 10.173C105.499 16.0894 98.5949 24.4985 94.518 34.3371C90.441 44.1756 89.3743 55.0016 91.4527 65.4461C93.5311 75.8907 98.6613 85.4846 106.195 93.0147C113.728 100.545 123.326 105.673 133.775 107.75C144.224 109.828 155.054 108.762 164.897 104.686C174.74 100.611 183.152 93.7099 189.071 84.8555C194.99 76.001 198.149 65.591 198.149 54.9419C198.149 40.6618 192.474 26.9666 182.372 16.8691C172.27 6.77159 158.569 1.09886 144.283 1.09886Z" fill="#3F3D56"/>
<path d="M110.447 97.6888L96.248 127.227L97.2389 127.703L111.438 98.1647L110.447 97.6888Z" fill="#3F3D56"/>
<path d="M107.17 166.538L106.646 167.505L169.19 201.339L169.713 200.372L107.17 166.538Z" fill="#3F3D56"/>
<path d="M107.456 207.131H27.207V126.916H107.456V207.131ZM28.3063 206.032H106.357V128.014H28.3063V206.032Z" fill="#3F3D56"/>
<path d="M226.463 246.689H143.455L184.959 174.833L226.463 246.689ZM145.359 245.59H224.558L184.959 177.03L145.359 245.59Z" fill="#3F3D56"/>
<path d="M393 376.901H0V378H393V376.901Z" fill="#E6E6E6"/>
<path d="M113.395 342.635C116.191 343.617 119.194 343.863 122.114 343.349C125.033 342.835 127.771 341.578 130.064 339.7C135.902 334.801 137.733 326.733 139.222 319.261L143.628 297.159L134.404 303.507C127.771 308.072 120.989 312.784 116.397 319.396C111.804 326.009 109.801 335.036 113.49 342.191" fill="#E6E6E6"/>
<path d="M114.818 370.932C113.657 362.478 112.463 353.915 113.279 345.37C114.002 337.781 116.318 330.371 121.034 324.292C123.537 321.072 126.582 318.314 130.034 316.14C130.934 315.572 131.762 316.998 130.866 317.563C124.894 321.335 120.275 326.906 117.674 333.472C114.802 340.773 114.341 348.732 114.836 356.489C115.135 361.179 115.77 365.839 116.408 370.493C116.459 370.703 116.427 370.925 116.32 371.113C116.214 371.301 116.039 371.442 115.832 371.506C115.622 371.563 115.397 371.535 115.207 371.427C115.017 371.319 114.878 371.141 114.818 370.931L114.818 370.932Z" fill="#F2F2F2"/>
<path d="M191.66 359.288C193.018 360.891 194.766 362.118 196.736 362.85C198.706 363.581 200.831 363.794 202.907 363.466C208.235 362.563 212.251 358.284 215.84 354.248L226.462 342.311L218.547 342.887C212.853 343.302 207.015 343.753 201.838 346.151C196.66 348.549 192.193 353.348 191.884 359.049" fill="#E6E6E6"/>
<path d="M182.544 375.935C184.413 371.443 186.293 366.889 189.158 362.923C191.702 359.4 194.978 356.423 199.052 354.792C201.211 353.93 203.504 353.451 205.828 353.377C206.433 353.357 206.433 354.297 205.828 354.316C201.804 354.45 197.926 355.859 194.755 358.337C191.237 361.1 188.715 364.881 186.722 368.836C185.516 371.229 184.484 373.703 183.457 376.175C183.421 376.293 183.341 376.393 183.234 376.455C183.128 376.516 183.001 376.535 182.881 376.507C182.761 376.475 182.659 376.396 182.597 376.288C182.534 376.18 182.517 376.052 182.549 375.932L182.544 375.935Z" fill="#F2F2F2"/>
<path d="M123.174 357.366C124.373 359.189 126.022 360.672 127.961 361.673C129.9 362.674 132.065 363.159 134.246 363.08C139.852 362.814 144.524 358.905 148.73 355.192L161.171 344.212L152.937 343.818C147.016 343.534 140.942 343.268 135.302 345.096C129.662 346.923 124.461 351.314 123.429 357.149" fill="#E6E6E6"/>
<path d="M111.536 375.792C117.125 365.907 123.607 354.921 135.19 351.41C138.411 350.437 141.788 350.089 145.139 350.383C146.195 350.474 145.932 352.102 144.877 352.011C139.26 351.545 133.653 353.028 129 356.21C124.523 359.256 121.037 363.491 118.087 367.981C116.28 370.732 114.661 373.599 113.043 376.463C112.526 377.378 111.013 376.717 111.536 375.792Z" fill="#F2F2F2"/>
<path d="M12.9077 358.283C14.9317 358.994 17.1047 359.173 19.2176 358.801C21.3304 358.429 23.3118 357.519 24.9709 356.159C29.196 352.614 30.5223 346.775 31.5985 341.367L34.7865 325.372L28.1121 329.966C23.312 333.27 18.4042 336.68 15.0805 341.465C11.7567 346.251 10.3062 352.783 12.9764 357.961" fill="#E6E6E6"/>
<path d="M13.4782 377.648C12.8027 372.729 12.1079 367.748 12.5817 362.776C13.0027 358.361 14.3499 354.049 17.0938 350.513C18.5501 348.639 20.3222 347.034 22.3303 345.769C22.8541 345.44 23.3356 346.269 22.8145 346.597C19.34 348.792 16.6527 352.033 15.1398 355.853C13.4688 360.102 13.2006 364.733 13.4908 369.245C13.6651 371.974 14.0339 374.684 14.406 377.393C14.436 377.515 14.4179 377.645 14.3556 377.754C14.2933 377.864 14.1913 377.946 14.0707 377.983C13.948 378.016 13.8172 377.999 13.7066 377.937C13.5961 377.874 13.5148 377.77 13.4804 377.648L13.4782 377.648Z" fill="#F2F2F2"/>
<path d="M63.1958 377.698C63.0507 377.461 59.6313 371.754 58.4462 359.904C57.359 349.031 58.0582 330.705 67.566 305.142C85.5792 256.714 63.4151 217.639 63.1886 217.25L64.2819 216.616C64.3368 216.715 70.0587 226.677 73.4369 242.541C77.901 263.573 76.2754 285.441 68.7505 305.582C50.7682 353.928 64.1373 376.814 64.2742 377.04L63.1958 377.698Z" fill="#3F3D56"/>
<path d="M82.0622 244.725C86.5989 244.725 90.2767 241.049 90.2767 236.514C90.2767 231.979 86.5989 228.303 82.0622 228.303C77.5254 228.303 73.8477 231.979 73.8477 236.514C73.8477 241.049 77.5254 244.725 82.0622 244.725Z" fill="#E6E6E6"/>
<path d="M58.0485 308.52C62.5853 308.52 66.263 304.844 66.263 300.309C66.263 295.774 62.5853 292.098 58.0485 292.098C53.5118 292.098 49.834 295.774 49.834 300.309C49.834 304.844 53.5118 308.52 58.0485 308.52Z" fill="#E6E6E6"/>
<path d="M67.395 377.452C67.395 377.452 60.3853 360.205 81.4139 347.27L67.395 377.452Z" fill="#E6E6E6"/>
<path d="M58.774 377.138C58.774 377.138 56.6359 364.845 40.0859 364.951L58.774 377.138Z" fill="#E6E6E6"/>
<path d="M77.9121 277.107C77.9121 275.803 78.2989 274.529 79.0237 273.444C79.7485 272.36 80.7786 271.515 81.9838 271.016C83.189 270.517 84.5152 270.386 85.7947 270.641C87.0742 270.895 88.2494 271.523 89.1719 272.445C90.0943 273.367 90.7225 274.542 90.977 275.821C91.2315 277.1 91.1009 278.426 90.6016 279.63C90.1024 280.835 89.257 281.865 88.1723 282.589C87.0877 283.314 85.8124 283.7 84.5079 283.7C82.7586 283.7 81.0809 283.006 79.844 281.769C78.607 280.533 77.9121 278.856 77.9121 277.107ZM79.0114 277.107C79.0114 278.194 79.3338 279.256 79.9377 280.16C80.5417 281.063 81.4001 281.767 82.4045 282.183C83.4088 282.599 84.514 282.708 85.5802 282.496C86.6464 282.284 87.6258 281.761 88.3945 280.992C89.1632 280.224 89.6867 279.245 89.8988 278.179C90.1109 277.113 90.002 276.009 89.586 275.005C89.17 274.001 88.4655 273.143 87.5616 272.539C86.6577 271.935 85.595 271.613 84.5079 271.613C83.0502 271.613 81.6521 272.192 80.6213 273.222C79.5905 274.253 79.0114 275.65 79.0114 277.107Z" fill="#CCCCCC"/>
<path d="M58.0488 256.757C58.0488 255.453 58.4357 254.178 59.1604 253.094C59.8852 252.01 60.9153 251.164 62.1205 250.665C63.3258 250.166 64.652 250.036 65.9314 250.29C67.2109 250.545 68.3861 251.173 69.3086 252.095C70.231 253.017 70.8592 254.191 71.1137 255.47C71.3682 256.749 71.2376 258.075 70.7384 259.28C70.2391 260.484 69.3937 261.514 68.3091 262.238C67.2244 262.963 65.9492 263.35 64.6446 263.35C62.8953 263.35 61.2176 262.655 59.9807 261.419C58.7437 260.182 58.0488 258.505 58.0488 256.757ZM59.1481 256.757C59.1481 257.843 59.4705 258.905 60.0745 259.809C60.6784 260.713 61.5369 261.417 62.5412 261.833C63.5456 262.248 64.6507 262.357 65.7169 262.145C66.7832 261.933 67.7626 261.41 68.5313 260.642C69.3 259.873 69.8234 258.894 70.0355 257.828C70.2476 256.763 70.1388 255.658 69.7227 254.654C69.3067 253.65 68.6022 252.792 67.6983 252.188C66.7944 251.585 65.7317 251.262 64.6446 251.262C63.1869 251.262 61.7888 251.841 60.758 252.872C59.7272 253.902 59.1481 255.299 59.1481 256.757Z" fill="#CCCCCC"/>
</g>
<defs>
<clipPath id="clip0_387_356">
<rect width="393" height="378" fill="white"/>
</clipPath>
</defs>
</svg>
