<svg width="607" height="359" viewBox="0 0 607 359" fill="none" xmlns="http://www.w3.org/2000/svg">
<g clip-path="url(#clip0_387_432)">
<path d="M155.927 316.77H144.15V332.101H155.927V316.77Z" fill="#373737"/>
<path d="M557.861 343.884H546.084V359.216H557.861V343.884Z" fill="#373737"/>
<path d="M334.311 170.786V158.992H319.001V170.786H334.311Z" fill="#373737"/>
<path d="M39.0293 49.5832V37.7896H23.7195V49.5832H39.0293Z" fill="#373737"/>
<path d="M173.019 58.6118H34.4766V318.279H173.019V58.6118Z" fill="#F7F7F7"/>
<path d="M236.442 288.82H63.9375V0H236.442V288.82ZM65.0157 287.74H235.364V1.0797H65.0157V287.74Z" fill="#3F3D56"/>
<path d="M215.419 151.698H84.9629V31.8511H215.419V151.698ZM86.041 150.618H214.341V32.9308H86.041V150.618Z" fill="#3F3D56"/>
<path d="M85.8833 119.922L85.1211 119.158L125.78 78.4412L149.652 102.348L214.23 37.6777L214.992 38.4411L149.652 103.875L125.78 79.9679L85.8833 119.922Z" fill="#3F3D56"/>
<path d="M125.932 87.4557C130.398 87.4557 134.018 83.8303 134.018 79.358C134.018 74.8857 130.398 71.2603 125.932 71.2603C121.466 71.2603 117.846 74.8857 117.846 79.358C117.846 83.8303 121.466 87.4557 125.932 87.4557Z" fill="#F26754"/>
<path d="M150.192 109.59C154.657 109.59 158.278 105.964 158.278 101.492C158.278 97.0195 154.657 93.394 150.192 93.394C145.726 93.394 142.105 97.0195 142.105 101.492C142.105 105.964 145.726 109.59 150.192 109.59Z" fill="#F26754"/>
<path d="M214.879 45.8874C219.345 45.8874 222.965 42.2619 222.965 37.7896C222.965 33.3174 219.345 29.6919 214.879 29.6919C210.413 29.6919 206.793 33.3174 206.793 37.7896C206.793 42.2619 210.413 45.8874 214.879 45.8874Z" fill="#F26754"/>
<path d="M199.247 185.168H101.135V194.886H199.247V185.168Z" fill="#DEDEDE"/>
<path d="M172.831 265.066H127.549V219.719H158.276V220.798H128.627V263.986H171.753V242.392H172.831V265.066Z" fill="#3F3D56"/>
<path d="M149.959 253.238L140.381 240.449L143.831 237.858L150.425 246.663L180.743 216.303L183.792 219.356L149.959 253.238Z" fill="#2DB98A"/>
<path d="M271.695 194.886V329.848H571.961V194.886H271.695ZM272.773 328.768V195.965H346.627V328.768H272.773ZM347.705 195.965H432.879V328.768H347.705V195.965ZM570.883 328.768H433.957V195.965H570.883V328.768Z" fill="#3F3D56"/>
<path d="M305.859 260.879H285.432C287.729 251.438 289.937 242.625 285.432 236.331H305.859C309.704 244.522 309.704 252.705 305.859 260.879Z" fill="#2988AD"/>
<path d="M408.556 307.008H388.128C386.85 295.628 389.669 287.146 388.128 282.46H408.556C407.771 290.624 407.771 298.844 408.556 307.008Z" fill="#F26754"/>
<path d="M383.597 271.249H363.17C363.936 261.81 366.405 252.996 363.17 246.701H383.597C387.443 254.884 387.443 263.067 383.597 271.249Z" fill="#2988AD"/>
<path d="M401.244 255.196H421.671C422.949 245.755 420.13 236.942 421.671 230.648H401.244C397.398 238.831 397.398 247.013 401.244 255.196Z" fill="#2DB98A"/>
<path d="M306.484 299.462H326.912C328.189 290.022 325.37 281.208 326.912 274.914H306.484C302.638 283.097 302.638 291.279 306.484 299.462Z" fill="#2DB98A"/>
<path d="M321.828 206.469H291.695V207.549H321.828V206.469Z" fill="#B3B3B3"/>
<path d="M404.847 206.469H374.715V207.549H404.847V206.469Z" fill="#B3B3B3"/>
<path d="M517.513 206.469H487.381V207.549H517.513V206.469Z" fill="#B3B3B3"/>
</g>
<defs>
<clipPath id="clip0_387_432">
<rect width="607" height="359" fill="white"/>
</clipPath>
</defs>
</svg>
