<svg width="370" height="367" viewBox="0 0 370 367" fill="none" xmlns="http://www.w3.org/2000/svg">
<g clip-path="url(#clip0_387_388)">
<path d="M250.967 98.6567C255.407 100.995 259.748 103.387 263.988 105.834" stroke="#2F2E41" stroke-miterlimit="10"/>
<path d="M168.334 84.1694C187.702 88.3471 208.848 95.559 230.15 105.737C245.579 113.06 260.342 121.704 274.275 131.571" stroke="#2F2E41" stroke-miterlimit="10"/>
<path d="M103.865 366.089H302.459" stroke="#3F3D56" stroke-miterlimit="10"/>
<path d="M150.211 81.0771C156.031 81.791 162.09 82.8224 168.334 84.1692" stroke="#2F2E41" stroke-miterlimit="10"/>
<path d="M93.2537 141.654C82.5009 125.957 78.807 111.126 84.3317 99.6207C90.4422 86.8952 106.799 80.3857 128.971 79.9062" stroke="#2F2E41" stroke-miterlimit="10"/>
<path d="M319.69 176.714C328.652 191.106 331.433 204.6 326.321 215.246C321.823 224.614 311.771 230.614 297.934 233.318" stroke="#2F2E41" stroke-miterlimit="10"/>
<path d="M274.275 131.571C283.257 137.925 291.747 144.945 299.674 152.57" stroke="#2F2E41" stroke-miterlimit="10"/>
<path d="M87.2988 61.5098C105.148 57.6848 128.245 58.3647 154.077 63.4442" stroke="#2F2E41" stroke-miterlimit="10"/>
<path d="M347.078 176.713C355.069 188.356 359.983 199.624 361.268 209.885" stroke="#2F2E41" stroke-miterlimit="10"/>
<path d="M263.988 105.834C272.003 110.457 279.629 115.238 286.865 120.178" stroke="#2F2E41" stroke-miterlimit="10"/>
<path d="M181.396 159.946H179.245L170.105 193.02C170.105 193.02 169.926 215.009 172.077 225.736C172.077 225.736 175.661 221.088 178.17 221.088C180.679 221.088 183.009 197.668 183.009 197.668C183.009 197.668 192.866 164.236 181.396 159.946Z" fill="#E6E6E6"/>
<path d="M228.711 223.233C228.711 223.233 222.976 239.323 228.353 240.395C233.729 241.468 236.597 227.881 235.163 226.093C233.729 224.306 228.711 223.233 228.711 223.233Z" fill="#FEB8B8"/>
<path d="M171.494 219.909C171.494 219.909 173.106 236.909 178.434 235.617C183.762 234.325 180.61 220.801 178.553 219.784C176.497 218.767 171.494 219.909 171.494 219.909Z" fill="#FEB8B8"/>
<path d="M185.341 319.415C185.341 319.415 187.85 331.572 183.549 334.79C179.248 338.008 184.983 344.801 184.983 344.801L198.603 330.499C198.603 330.499 192.868 321.56 193.227 316.197L185.341 319.415Z" fill="#FEB8B8"/>
<path d="M206.847 330.499L205.413 340.153L205.055 346.946L212.94 346.231L214.016 332.287L206.847 330.499Z" fill="#FEB8B8"/>
<path d="M176.499 221.612C176.499 221.612 172.078 223.233 172.437 227.881C172.795 232.529 173.87 247.189 173.87 247.189C173.87 247.189 170.644 278.653 173.87 289.38C177.096 300.107 183.19 321.56 183.19 321.56C183.19 321.56 192.509 323.348 194.66 316.554C194.66 316.554 194.302 293.313 190.359 288.307C186.416 283.302 189.283 281.871 189.642 281.156C190 280.441 191.076 279.369 191.076 278.296C191.076 277.223 191.434 273.29 191.434 271.86C191.434 270.43 191.076 270.787 191.792 268.642C192.509 266.497 193.226 265.781 193.226 265.424C193.226 265.066 199.32 246.116 199.32 246.116L207.205 290.095C207.205 290.095 205.413 333.359 206.13 333.359C206.847 333.359 214.733 336.22 217.6 333.359C217.6 333.359 224.769 296.174 223.335 294.028C221.901 291.883 221.543 291.525 221.901 289.38C222.26 287.235 222.977 286.162 222.26 285.089C221.543 284.017 220.468 280.441 221.543 279.369C222.618 278.296 222.977 273.29 222.977 273.29C222.977 273.29 229.07 238.25 225.127 233.244C221.185 228.238 176.499 221.612 176.499 221.612Z" fill="#2F2E41"/>
<path d="M188.566 335.147C188.566 335.147 184.264 329.784 182.831 332.287C181.397 334.789 179.246 338.723 179.246 338.723C179.246 338.723 163.116 352.667 172.078 353.025C181.039 353.382 186.774 346.946 186.774 346.946C186.774 346.946 188.207 339.795 192.509 339.795L193.226 341.583L201.111 336.577C201.111 336.577 200.001 327.084 196.792 327.361L188.566 335.147Z" fill="#2F2E41"/>
<path d="M203.62 345.874C203.62 345.874 212.94 342.298 214.015 345.874C215.091 349.449 215.091 351.237 215.091 351.237C215.091 351.237 222.976 364.109 215.091 364.824C207.205 365.539 203.62 360.534 203.62 360.534C203.62 360.534 204.696 354.455 203.62 353.74C202.545 353.025 203.62 345.874 203.62 345.874Z" fill="#2F2E41"/>
<path d="M210.073 148.504C217.001 148.504 222.618 142.901 222.618 135.989C222.618 129.078 217.001 123.475 210.073 123.475C203.144 123.475 197.527 129.078 197.527 135.989C197.527 142.901 203.144 148.504 210.073 148.504Z" fill="#FEB8B8"/>
<path d="M200.753 138.85L198.244 152.795L215.808 157.085C215.808 157.085 211.686 146.895 216.166 142.426C217.3 141.295 200.753 138.85 200.753 138.85Z" fill="#FEB8B8"/>
<path d="M199.312 146.854C198.889 146.934 198.497 147.131 198.181 147.422C197.865 147.714 197.638 148.089 197.526 148.504C197.213 149.531 196.728 150.499 196.092 151.365C196.092 151.365 179.246 159.231 179.246 160.303C179.246 161.376 186.056 184.26 186.056 184.26C186.056 184.26 186.414 198.562 183.547 201.78C180.679 204.998 177.812 216.797 178.529 217.87C179.246 218.942 173.511 221.445 175.661 223.233C177.812 225.021 207.921 242.183 225.843 234.317C225.843 234.317 226.201 231.099 225.843 228.954C225.484 226.808 227.994 219.657 227.277 217.155C226.56 214.652 227.277 188.908 227.277 188.908L230.971 158.424C231.041 157.845 230.905 157.26 230.586 156.771C230.267 156.282 229.785 155.921 229.226 155.751C225.095 154.499 215.514 149.371 214.194 150.471C212.484 151.895 201.815 150.925 199.312 146.854Z" fill="#E6E6E6"/>
<path d="M227.637 155.655L227.66 155.646C228.173 155.441 228.739 155.412 229.27 155.564C229.801 155.715 230.266 156.039 230.592 156.484C232.814 159.516 237.488 166.33 238.032 170.672C238.749 176.393 240.9 191.768 240.541 193.913C240.183 196.059 239.824 196.416 240.541 197.489C241.258 198.562 240.9 198.204 240.541 199.277C240.183 200.349 235.881 230.026 235.881 230.026C235.881 230.026 233.014 223.59 227.637 225.736C227.637 225.736 228.354 220.015 227.637 218.227C226.92 216.439 226.203 215.367 226.92 213.937C227.637 212.506 226.92 198.562 226.562 197.131C226.203 195.701 226.562 188.193 226.562 188.193L223.336 173.533L227.637 155.655Z" fill="#E6E6E6"/>
<path d="M207.729 138.12L208.153 135.174C208.251 134.487 208.654 133.584 209.324 133.77C209.894 133.929 211.135 134.416 211.343 134.269C212.121 133.719 213.299 134.681 214.118 134.192C214.461 133.987 214.684 133.549 215.083 133.52C215.35 133.537 215.602 133.651 215.791 133.84C216.323 134.301 216.949 134.64 217.625 134.834C217.965 134.926 218.323 134.926 218.662 134.834C219.002 134.741 219.311 134.56 219.556 134.309C219.643 134.175 219.76 134.063 219.898 133.982C220.059 133.936 220.232 133.944 220.389 134.005L222.48 134.573C222.787 133.46 222.85 132.295 222.665 131.156C222.479 130.017 222.05 128.931 221.405 127.973C220.556 126.825 219.528 125.82 218.359 124.998C217.064 124.015 215.727 123.091 214.35 122.225C212.841 121.275 211.242 120.378 209.478 120.111C207.715 119.844 205.74 120.322 204.631 121.715C204.109 121.338 203.717 120.81 203.509 120.202C203.384 120.315 203.286 120.454 203.221 120.609C203.157 120.763 203.127 120.93 203.134 121.098C203.141 121.266 203.185 121.43 203.262 121.578C203.34 121.727 203.449 121.857 203.583 121.959L201.814 120.833C201.317 121.354 202.288 122.298 201.865 122.88C201.737 123.024 201.572 123.131 201.389 123.19C200.428 123.563 199.548 124.116 198.795 124.818C197.779 125.835 197.227 127.215 196.753 128.571C195.699 131.587 194.933 135.045 196.431 137.868C196.6 138.188 198.841 143.471 199.14 143.677C200.149 144.373 199.492 142.688 200.215 143.677C200.782 144.453 200.676 141.485 201.519 142.136C201.849 142.372 202.241 142.507 202.647 142.525C203.052 142.544 203.455 142.444 203.805 142.239C204.154 141.997 204.042 140.655 203.853 139.422C203.817 139.188 203.84 138.948 203.918 138.723C203.997 138.499 204.129 138.298 204.304 138.136C204.479 137.975 204.691 137.859 204.921 137.798C205.151 137.738 205.393 137.734 205.624 137.789C206.674 138.035 207.711 138.245 207.729 138.12Z" fill="#2F2E41"/>
<path opacity="0.1" d="M225.004 166.601L228.175 202.316C228.175 202.316 221.474 172.361 225.004 166.601Z" fill="black"/>
<path d="M275.474 277.33C273.425 277.445 271.448 278.128 269.765 279.301C268.083 280.475 266.761 282.093 265.949 283.973C263.567 289.717 266.634 296.463 271.238 300.652C275.842 304.84 281.756 307.234 287.129 310.38C294.347 314.607 300.832 320.474 304.443 328.005C308.055 335.537 308.439 344.866 304.194 352.061C300.254 358.739 293.09 362.736 286.257 366.422" stroke="#3F3D56" stroke-miterlimit="10"/>
<path d="M281.542 281.907C286.189 281.907 289.957 280.082 289.957 277.83C289.957 275.578 286.189 273.753 281.542 273.753C276.894 273.753 273.127 275.578 273.127 277.83C273.127 280.082 276.894 281.907 281.542 281.907Z" fill="#57B894"/>
<path d="M288.274 308.769C292.922 308.769 296.689 306.943 296.689 304.691C296.689 302.44 292.922 300.614 288.274 300.614C283.627 300.614 279.859 302.44 279.859 304.691C279.859 306.943 283.627 308.769 288.274 308.769Z" fill="#57B894"/>
<path d="M272.886 313.086C277.533 313.086 281.301 311.26 281.301 309.008C281.301 306.757 277.533 304.931 272.886 304.931C268.238 304.931 264.471 306.757 264.471 309.008C264.471 311.26 268.238 313.086 272.886 313.086Z" fill="#57B894"/>
<path d="M296.931 335.63C301.578 335.63 305.346 333.805 305.346 331.553C305.346 329.301 301.578 327.476 296.931 327.476C292.283 327.476 288.516 329.301 288.516 331.553C288.516 333.805 292.283 335.63 296.931 335.63Z" fill="#57B894"/>
<path d="M313.759 335.63C318.406 335.63 322.174 333.805 322.174 331.553C322.174 329.301 318.406 327.476 313.759 327.476C309.111 327.476 305.344 329.301 305.344 331.553C305.344 333.805 309.111 335.63 313.759 335.63Z" fill="#57B894"/>
<path d="M252.726 232.679C230.656 229.051 205.689 221.163 180.503 209.129C151.826 195.427 127.526 178.576 110.211 161.545" stroke="#2F2E41" stroke-miterlimit="10"/>
<path d="M163.244 216.541C143.5 206.337 125.625 194.993 110.211 183.182" stroke="#2F2E41" stroke-miterlimit="10"/>
<path d="M23.6709 57.0646C36.744 57.0646 47.3419 46.493 47.3419 33.4522C47.3419 20.4115 36.744 9.83984 23.6709 9.83984C10.5978 9.83984 0 20.4115 0 33.4522C0 46.493 10.5978 57.0646 23.6709 57.0646Z" fill="#F26754"/>
<path d="M29.2237 47.4445C42.2968 47.4445 52.8946 36.8729 52.8946 23.8321C52.8946 10.7914 42.2968 0.219727 29.2237 0.219727C16.1506 0.219727 5.55273 10.7914 5.55273 23.8321C5.55273 36.8729 16.1506 47.4445 29.2237 47.4445Z" stroke="#2F2E41" stroke-miterlimit="10"/>
<path d="M352.776 132.479C360.382 132.479 366.548 126.328 366.548 118.741C366.548 111.153 360.382 105.002 352.776 105.002C345.17 105.002 339.004 111.153 339.004 118.741C339.004 126.328 345.17 132.479 352.776 132.479Z" fill="#2988AD"/>
<path d="M356.009 126.882C363.615 126.882 369.781 120.731 369.781 113.143C369.781 105.556 363.615 99.4053 356.009 99.4053C348.402 99.4053 342.236 105.556 342.236 113.143C342.236 120.731 348.402 126.882 356.009 126.882Z" stroke="#2F2E41" stroke-miterlimit="10"/>
<path d="M101.544 281.695C112.477 281.695 121.341 272.853 121.341 261.946C121.341 251.039 112.477 242.198 101.544 242.198C90.6097 242.198 81.7461 251.039 81.7461 261.946C81.7461 272.853 90.6097 281.695 101.544 281.695Z" fill="#2DB98A"/>
<path d="M106.188 273.649C117.122 273.649 125.986 264.808 125.986 253.901C125.986 242.994 117.122 234.152 106.188 234.152C95.2543 234.152 86.3906 242.994 86.3906 253.901C86.3906 264.808 95.2543 273.649 106.188 273.649Z" stroke="#2F2E41" stroke-miterlimit="10"/>
</g>
<defs>
<clipPath id="clip0_387_388">
<rect width="370" height="367" fill="white"/>
</clipPath>
</defs>
</svg>
